<svg xmlns="http://www.w3.org/2000/svg" viewBox="0 0 64 64">
  <rect width="64" height="64" rx="16" fill="#223a2f"></rect>

  <circle cx="32" cy="32" r="23" fill="none" stroke="#a9bf99" stroke-width="1.5"></circle>

  <path d="M18 20v24h15v-4H23V20h-5Z" fill="#f6f7f1"></path>

  <path d="M46 25.5c-2.2-3.7-5.5-5.7-9.5-5.7-6.6 0-11.5 5.2-11.5 12.2s4.9 12.2 11.5 12.2c4 0 7.3-2 9.5-5.7l-4-2.2c-1.2 2.1-3 3.2-5.4 3.2-4 0-6.7-3.1-6.7-7.5s2.7-7.5 6.7-7.5c2.4 0 4.2 1.1 5.4 3.2l4-2.2Z" fill="#f6f7f1"></path>
</svg>